<svg width="212" height="346" viewBox="0 0 212 346" fill="none" xmlns="http://www.w3.org/2000/svg">
<path d="M211.9 335.2C211.9 340.8 207.4 345.3 201.8 345.3H10.4001C4.80005 345.3 0.300049 340.8 0.300049 335.2V10.7999C0.300049 5.19995 4.80005 0.699951 10.4001 0.699951H201.8C207.4 0.699951 211.9 5.19995 211.9 10.7999V335.2Z" fill="white"/>
<path d="M39.4605 195.302H41.7934L47.2787 208.7H47.4678L52.9532 195.302H55.286V211.443H53.4576V199.18H53.2999L48.256 211.443H46.4906L41.4466 199.18H41.289V211.443H39.4605V195.302ZM62.515 211.727C61.7479 211.727 61.0518 211.582 60.4265 211.293C59.8013 210.999 59.3048 210.576 58.937 210.024C58.5692 209.468 58.3853 208.795 58.3853 208.007C58.3853 207.313 58.5219 206.751 58.7951 206.32C59.0683 205.884 59.4335 205.543 59.8906 205.296C60.3477 205.049 60.8521 204.865 61.4038 204.744C61.9607 204.618 62.5203 204.518 63.0825 204.445C63.8181 204.35 64.4144 204.279 64.8715 204.232C65.3339 204.179 65.6702 204.093 65.8803 203.972C66.0957 203.851 66.2035 203.641 66.2035 203.341V203.278C66.2035 202.501 65.9907 201.896 65.5651 201.465C65.1447 201.035 64.5064 200.819 63.6499 200.819C62.762 200.819 62.0658 201.014 61.5614 201.402C61.057 201.791 60.7024 202.206 60.4975 202.648L58.7321 202.017C59.0473 201.282 59.4676 200.709 59.9931 200.299C60.5237 199.884 61.1017 199.595 61.7269 199.432C62.3574 199.264 62.9774 199.18 63.5869 199.18C63.9757 199.18 64.4223 199.227 64.9267 199.322C65.4364 199.411 65.9276 199.598 66.4005 199.881C66.8786 200.165 67.2753 200.593 67.5905 201.166C67.9058 201.739 68.0634 202.506 68.0634 203.467V211.443H66.2035V209.804H66.1089C65.9828 210.067 65.7726 210.348 65.4784 210.647C65.1842 210.947 64.7927 211.201 64.3041 211.412C63.8154 211.622 63.2191 211.727 62.515 211.727ZM62.7988 210.056C63.5343 210.056 64.1543 209.912 64.6587 209.623C65.1684 209.334 65.5519 208.961 65.8094 208.503C66.0721 208.046 66.2035 207.566 66.2035 207.061V205.359C66.1246 205.453 65.9513 205.54 65.6833 205.619C65.4206 205.692 65.1158 205.758 64.7691 205.816C64.4276 205.868 64.0939 205.916 63.7682 205.958C63.4477 205.995 63.1876 206.026 62.9879 206.052C62.5045 206.115 62.0527 206.218 61.6324 206.36C61.2173 206.496 60.881 206.704 60.6236 206.982C60.3714 207.256 60.2453 207.629 60.2453 208.101C60.2453 208.748 60.4843 209.236 60.9624 209.567C61.4458 209.893 62.0579 210.056 62.7988 210.056ZM71.4583 211.443V199.338H73.2552V201.166H73.3813C73.6019 200.567 74.0013 200.081 74.5792 199.708C75.1572 199.335 75.8087 199.148 76.5338 199.148C76.6704 199.148 76.8411 199.151 77.046 199.156C77.2509 199.162 77.4059 199.169 77.511 199.18V201.071C77.448 201.056 77.3035 201.032 77.0776 201.001C76.8569 200.964 76.6231 200.945 76.3761 200.945C75.7877 200.945 75.2623 201.069 74.7999 201.316C74.3428 201.557 73.9802 201.894 73.7123 202.325C73.4496 202.75 73.3182 203.236 73.3182 203.783V211.443H71.4583ZM81.4497 207.03L81.4181 204.728H81.7964L87.0926 199.338H89.3939L83.751 205.044H83.5934L81.4497 207.03ZM79.7158 211.443V195.302H81.5758V211.443H79.7158ZM87.4079 211.443L82.6791 205.453L84.0032 204.161L89.7722 211.443H87.4079ZM104.461 195.302H106.415V206.84C106.415 207.87 106.226 208.745 105.848 209.465C105.47 210.185 104.936 210.731 104.248 211.104C103.56 211.477 102.748 211.664 101.813 211.664C100.93 211.664 100.145 211.504 99.4563 211.183C98.768 210.857 98.2268 210.395 97.8327 209.796C97.4387 209.197 97.2416 208.485 97.2416 207.66H99.1647C99.1647 208.117 99.2776 208.517 99.5036 208.858C99.7347 209.194 100.05 209.457 100.449 209.646C100.849 209.835 101.303 209.93 101.813 209.93C102.375 209.93 102.853 209.812 103.247 209.575C103.641 209.339 103.941 208.992 104.146 208.535C104.356 208.073 104.461 207.508 104.461 206.84V195.302ZM110.677 211.569C110.288 211.569 109.955 211.43 109.676 211.152C109.398 210.873 109.259 210.539 109.259 210.151C109.259 209.762 109.398 209.428 109.676 209.15C109.955 208.871 110.288 208.732 110.677 208.732C111.066 208.732 111.4 208.871 111.678 209.15C111.957 209.428 112.096 209.762 112.096 210.151C112.096 210.408 112.03 210.644 111.899 210.86C111.773 211.075 111.602 211.249 111.386 211.38C111.176 211.506 110.94 211.569 110.677 211.569ZM124.859 211.443L120.446 195.302H122.432L125.805 208.448H125.963L129.399 195.302H131.606L135.042 208.448H135.2L138.573 195.302H140.559L136.145 211.443H134.128L130.565 198.581H130.439L126.877 211.443H124.859ZM142.742 211.443V199.338H144.602V211.443H142.742ZM143.688 197.32C143.325 197.32 143.012 197.197 142.75 196.95C142.492 196.703 142.364 196.406 142.364 196.059C142.364 195.712 142.492 195.415 142.75 195.168C143.012 194.921 143.325 194.798 143.688 194.798C144.05 194.798 144.36 194.921 144.618 195.168C144.88 195.415 145.012 195.712 145.012 196.059C145.012 196.406 144.88 196.703 144.618 196.95C144.36 197.197 144.05 197.32 143.688 197.32ZM149.868 195.302V211.443H148.008V195.302H149.868ZM155.135 195.302V211.443H153.275V195.302H155.135ZM158.542 211.443V199.338H160.402V211.443H158.542ZM159.487 197.32C159.125 197.32 158.812 197.197 158.55 196.95C158.292 196.703 158.163 196.406 158.163 196.059C158.163 195.712 158.292 195.415 158.55 195.168C158.812 194.921 159.125 194.798 159.487 194.798C159.85 194.798 160.16 194.921 160.417 195.168C160.68 195.415 160.812 195.712 160.812 196.059C160.812 196.406 160.68 196.703 160.417 196.95C160.16 197.197 159.85 197.32 159.487 197.32ZM167.371 211.727C166.604 211.727 165.907 211.582 165.282 211.293C164.657 210.999 164.16 210.576 163.793 210.024C163.425 209.468 163.241 208.795 163.241 208.007C163.241 207.313 163.378 206.751 163.651 206.32C163.924 205.884 164.289 205.543 164.746 205.296C165.203 205.049 165.708 204.865 166.259 204.744C166.816 204.618 167.376 204.518 167.938 204.445C168.674 204.35 169.27 204.279 169.727 204.232C170.19 204.179 170.526 204.093 170.736 203.972C170.951 203.851 171.059 203.641 171.059 203.341V203.278C171.059 202.501 170.846 201.896 170.421 201.465C170 201.035 169.362 200.819 168.506 200.819C167.618 200.819 166.921 201.014 166.417 201.402C165.913 201.791 165.558 202.206 165.353 202.648L163.588 202.017C163.903 201.282 164.323 200.709 164.849 200.299C165.379 199.884 165.957 199.595 166.583 199.432C167.213 199.264 167.833 199.18 168.443 199.18C168.831 199.18 169.278 199.227 169.782 199.322C170.292 199.411 170.783 199.598 171.256 199.881C171.734 200.165 172.131 200.593 172.446 201.166C172.761 201.739 172.919 202.506 172.919 203.467V211.443H171.059V209.804H170.965C170.838 210.067 170.628 210.348 170.334 210.647C170.04 210.947 169.648 211.201 169.16 211.412C168.671 211.622 168.075 211.727 167.371 211.727ZM167.654 210.056C168.39 210.056 169.01 209.912 169.514 209.623C170.024 209.334 170.408 208.961 170.665 208.503C170.928 208.046 171.059 207.566 171.059 207.061V205.359C170.98 205.453 170.807 205.54 170.539 205.619C170.276 205.692 169.971 205.758 169.625 205.816C169.283 205.868 168.95 205.916 168.624 205.958C168.303 205.995 168.043 206.026 167.844 206.052C167.36 206.115 166.908 206.218 166.488 206.36C166.073 206.496 165.737 206.704 165.479 206.982C165.227 207.256 165.101 207.629 165.101 208.101C165.101 208.748 165.34 209.236 165.818 209.567C166.301 209.893 166.914 210.056 167.654 210.056ZM176.314 211.443V199.338H178.111V201.229H178.268C178.521 200.583 178.928 200.081 179.49 199.724C180.052 199.361 180.727 199.18 181.515 199.18C182.314 199.18 182.979 199.361 183.509 199.724C184.045 200.081 184.463 200.583 184.763 201.229H184.889C185.199 200.604 185.664 200.107 186.284 199.74C186.904 199.366 187.647 199.18 188.514 199.18C189.596 199.18 190.482 199.519 191.17 200.197C191.858 200.869 192.202 201.917 192.202 203.341V211.443H190.342V203.341C190.342 202.448 190.098 201.81 189.609 201.426C189.121 201.043 188.546 200.851 187.883 200.851C187.032 200.851 186.373 201.108 185.905 201.623C185.438 202.133 185.204 202.779 185.204 203.562V211.443H183.312V203.152C183.312 202.464 183.089 201.909 182.642 201.489C182.196 201.064 181.621 200.851 180.916 200.851C180.433 200.851 179.981 200.979 179.561 201.237C179.146 201.494 178.81 201.852 178.552 202.309C178.3 202.761 178.174 203.283 178.174 203.877V211.443H176.314Z" fill="#0B7077"/>
<path d="M63.2922 247.815V253.05H62.6583V247.815H63.2922ZM66.1787 253.05H64.5632V247.815H66.2502C66.758 247.815 67.1926 247.92 67.5538 248.129C67.9151 248.337 68.192 248.636 68.3846 249.026C68.5771 249.415 68.6734 249.88 68.6734 250.422C68.6734 250.967 68.5763 251.437 68.382 251.83C68.1877 252.222 67.9049 252.524 67.5334 252.735C67.1619 252.945 66.7103 253.05 66.1787 253.05ZM65.1971 252.487H66.1378C66.5706 252.487 66.9293 252.404 67.2139 252.237C67.4985 252.07 67.7106 251.832 67.8503 251.524C67.9901 251.215 68.0599 250.848 68.0599 250.422C68.0599 249.999 67.9909 249.635 67.8529 249.33C67.7149 249.024 67.5087 248.789 67.2343 248.625C66.96 248.46 66.6183 248.377 66.2093 248.377H65.1971V252.487ZM75.9122 247.815V253.05H75.2987L72.4462 248.939H72.395V253.05H71.7611V247.815H72.3746L75.2374 251.935H75.2885V247.815H75.9122ZM79.5731 251.444V249.123H80.1764V253.05H79.5731V252.385H79.5322C79.4402 252.584 79.2971 252.754 79.1028 252.894C78.9086 253.032 78.6632 253.101 78.3667 253.101C78.1213 253.101 77.9032 253.047 77.7123 252.94C77.5215 252.831 77.3715 252.667 77.2624 252.449C77.1534 252.229 77.0989 251.952 77.0989 251.618V249.123H77.7021V251.577C77.7021 251.864 77.7822 252.092 77.9424 252.262C78.1042 252.433 78.3104 252.518 78.5609 252.518C78.7109 252.518 78.8634 252.48 79.0185 252.403C79.1752 252.326 79.3064 252.209 79.4121 252.05C79.5195 251.892 79.5731 251.69 79.5731 251.444ZM81.2812 253.05V249.123H81.864V249.737H81.9151C81.9969 249.527 82.129 249.365 82.3113 249.249C82.4937 249.131 82.7126 249.072 82.9682 249.072C83.2272 249.072 83.4428 249.131 83.6149 249.249C83.7887 249.365 83.9242 249.527 84.0213 249.737H84.0622C84.1628 249.534 84.3136 249.373 84.5147 249.254C84.7157 249.133 84.9569 249.072 85.238 249.072C85.5891 249.072 85.8762 249.182 86.0994 249.402C86.3227 249.62 86.4343 249.96 86.4343 250.422V253.05H85.831V250.422C85.831 250.132 85.7518 249.925 85.5933 249.801C85.4348 249.676 85.2482 249.614 85.0335 249.614C84.7575 249.614 84.5436 249.698 84.392 249.865C84.2403 250.03 84.1645 250.24 84.1645 250.493V253.05H83.551V250.361C83.551 250.137 83.4786 249.958 83.3338 249.821C83.1889 249.683 83.0023 249.614 82.774 249.614C82.6172 249.614 82.4707 249.656 82.3343 249.739C82.1997 249.823 82.0906 249.939 82.0071 250.087C81.9254 250.234 81.8845 250.403 81.8845 250.596V253.05H81.2812ZM87.619 253.05V247.815H88.2222V249.747H88.2734C88.3177 249.679 88.379 249.592 88.4574 249.486C88.5375 249.379 88.6517 249.284 88.7999 249.2C88.9499 249.115 89.1526 249.072 89.4083 249.072C89.7388 249.072 90.0302 249.155 90.2824 249.32C90.5346 249.486 90.7315 249.72 90.8729 250.023C91.0143 250.326 91.085 250.684 91.085 251.097C91.085 251.513 91.0143 251.873 90.8729 252.178C90.7315 252.481 90.5355 252.716 90.285 252.883C90.0345 253.049 89.7457 253.131 89.4185 253.131C89.1663 253.131 88.9644 253.09 88.8127 253.006C88.661 252.921 88.5443 252.825 88.4625 252.717C88.3807 252.608 88.3177 252.518 88.2734 252.446H88.2018V253.05H87.619ZM88.212 251.086C88.212 251.383 88.2555 251.645 88.3424 251.871C88.4293 252.096 88.5562 252.273 88.7232 252.4C88.8902 252.526 89.0947 252.589 89.3367 252.589C89.5889 252.589 89.7993 252.523 89.968 252.39C90.1384 252.255 90.2662 252.075 90.3514 251.848C90.4384 251.62 90.4818 251.366 90.4818 251.086C90.4818 250.81 90.4392 250.562 90.354 250.34C90.2705 250.117 90.1436 249.941 89.9731 249.811C89.8044 249.68 89.5923 249.614 89.3367 249.614C89.0913 249.614 88.8851 249.676 88.7181 249.801C88.5511 249.923 88.425 250.096 88.3398 250.317C88.2546 250.537 88.212 250.793 88.212 251.086ZM93.6539 253.131C93.2756 253.131 92.9493 253.048 92.6749 252.881C92.4023 252.712 92.1918 252.477 92.0436 252.175C91.897 251.872 91.8237 251.519 91.8237 251.117C91.8237 250.715 91.897 250.361 92.0436 250.054C92.1918 249.745 92.398 249.505 92.6621 249.333C92.928 249.159 93.2381 249.072 93.5925 249.072C93.797 249.072 93.999 249.106 94.1983 249.175C94.3977 249.243 94.5792 249.353 94.7428 249.507C94.9064 249.659 95.0367 249.86 95.1339 250.11C95.231 250.361 95.2796 250.669 95.2796 251.035V251.291H92.2532V250.77H94.6661C94.6661 250.548 94.6218 250.35 94.5332 250.177C94.4463 250.003 94.3219 249.866 94.16 249.765C93.9998 249.664 93.8107 249.614 93.5925 249.614C93.3523 249.614 93.1444 249.674 92.9689 249.793C92.7951 249.911 92.6613 250.064 92.5676 250.253C92.4738 250.442 92.427 250.645 92.427 250.862V251.209C92.427 251.506 92.4781 251.757 92.5803 251.963C92.6843 252.168 92.8283 252.324 93.0123 252.431C93.1964 252.537 93.4102 252.589 93.6539 252.589C93.8124 252.589 93.9555 252.567 94.0833 252.523C94.2128 252.477 94.3244 252.409 94.4182 252.319C94.5119 252.227 94.5843 252.112 94.6354 251.976L95.2182 252.14C95.1569 252.337 95.0538 252.511 94.9089 252.661C94.7641 252.809 94.5852 252.925 94.3721 253.009C94.1591 253.09 93.9197 253.131 93.6539 253.131ZM96.1972 253.05V249.123H96.78V249.716H96.8209C96.8924 249.522 97.0219 249.365 97.2094 249.244C97.3968 249.123 97.6081 249.062 97.8433 249.062C97.8876 249.062 97.943 249.063 98.0094 249.065C98.0759 249.066 98.1262 249.069 98.1602 249.072V249.686C98.1398 249.681 98.0929 249.673 98.0197 249.663C97.9481 249.651 97.8723 249.645 97.7922 249.645C97.6013 249.645 97.4309 249.685 97.281 249.765C97.1327 249.843 97.0151 249.952 96.9282 250.092C96.843 250.23 96.8004 250.388 96.8004 250.565V253.05H96.1972ZM101.339 252.38C101.213 252.38 101.105 252.335 101.015 252.244C100.924 252.154 100.879 252.046 100.879 251.92C100.879 251.794 100.924 251.685 101.015 251.595C101.105 251.505 101.213 251.46 101.339 251.46C101.465 251.46 101.574 251.505 101.664 251.595C101.754 251.685 101.799 251.794 101.799 251.92C101.799 252.003 101.778 252.08 101.736 252.15C101.695 252.22 101.639 252.276 101.569 252.319C101.501 252.359 101.425 252.38 101.339 252.38ZM101.339 249.732C101.213 249.732 101.105 249.687 101.015 249.596C100.924 249.506 100.879 249.398 100.879 249.272C100.879 249.146 100.924 249.037 101.015 248.947C101.105 248.857 101.213 248.812 101.339 248.812C101.465 248.812 101.574 248.857 101.664 248.947C101.754 249.037 101.799 249.146 101.799 249.272C101.799 249.355 101.778 249.432 101.736 249.502C101.695 249.572 101.639 249.628 101.569 249.67C101.501 249.711 101.425 249.732 101.339 249.732ZM106.604 253.121C106.218 253.121 105.89 253.016 105.62 252.807C105.349 252.595 105.142 252.29 104.998 251.889C104.855 251.487 104.784 251.001 104.784 250.432C104.784 249.866 104.855 249.383 104.998 248.983C105.143 248.581 105.351 248.274 105.622 248.063C105.895 247.85 106.222 247.743 106.604 247.743C106.985 247.743 107.312 247.85 107.583 248.063C107.855 248.274 108.063 248.581 108.206 248.983C108.351 249.383 108.424 249.866 108.424 250.432C108.424 251.001 108.352 251.487 108.209 251.889C108.066 252.29 107.859 252.595 107.588 252.807C107.317 253.016 106.989 253.121 106.604 253.121ZM106.604 252.559C106.985 252.559 107.282 252.375 107.493 252.007C107.704 251.639 107.81 251.114 107.81 250.432C107.81 249.979 107.761 249.593 107.664 249.274C107.569 248.956 107.431 248.713 107.25 248.546C107.071 248.379 106.856 248.295 106.604 248.295C106.225 248.295 105.93 248.482 105.717 248.855C105.504 249.227 105.397 249.752 105.397 250.432C105.397 250.885 105.445 251.271 105.54 251.587C105.636 251.904 105.773 252.146 105.952 252.311C106.132 252.476 106.35 252.559 106.604 252.559ZM111.235 247.815V253.05H110.601V248.479H110.571L109.293 249.328V248.684L110.601 247.815H111.235ZM112.741 253.05V252.589L114.469 250.698C114.671 250.476 114.838 250.284 114.97 250.12C115.101 249.955 115.198 249.8 115.261 249.655C115.326 249.509 115.358 249.355 115.358 249.195C115.358 249.011 115.314 248.852 115.225 248.717C115.138 248.582 115.019 248.478 114.867 248.405C114.716 248.332 114.545 248.295 114.356 248.295C114.155 248.295 113.98 248.337 113.83 248.421C113.681 248.502 113.566 248.617 113.485 248.766C113.404 248.914 113.364 249.088 113.364 249.287H112.761C112.761 248.98 112.832 248.711 112.973 248.479C113.115 248.248 113.307 248.067 113.551 247.937C113.796 247.808 114.072 247.743 114.377 247.743C114.683 247.743 114.955 247.808 115.192 247.937C115.429 248.067 115.615 248.242 115.749 248.461C115.884 248.681 115.951 248.926 115.951 249.195C115.951 249.388 115.916 249.576 115.846 249.76C115.778 249.942 115.659 250.146 115.489 250.371C115.32 250.594 115.085 250.867 114.786 251.189L113.61 252.446V252.487H116.043V253.05H112.741ZM118.939 247.815V253.05H118.305V248.479H118.275L116.997 249.328V248.684L118.305 247.815H118.939ZM122.469 253.05V252.589L124.197 250.698C124.4 250.476 124.567 250.284 124.698 250.12C124.829 249.955 124.926 249.8 124.989 249.655C125.054 249.509 125.087 249.355 125.087 249.195C125.087 249.011 125.042 248.852 124.954 248.717C124.867 248.582 124.747 248.478 124.596 248.405C124.444 248.332 124.274 248.295 124.085 248.295C123.883 248.295 123.708 248.337 123.558 248.421C123.41 248.502 123.295 248.617 123.213 248.766C123.133 248.914 123.093 249.088 123.093 249.287H122.49C122.49 248.98 122.56 248.711 122.702 248.479C122.843 248.248 123.036 248.067 123.279 247.937C123.525 247.808 123.8 247.743 124.105 247.743C124.412 247.743 124.684 247.808 124.92 247.937C125.157 248.067 125.343 248.242 125.478 248.461C125.612 248.681 125.68 248.926 125.68 249.195C125.68 249.388 125.645 249.576 125.575 249.76C125.507 249.942 125.387 250.146 125.217 250.371C125.048 250.594 124.814 250.867 124.514 251.189L123.338 252.446V252.487H125.772V253.05H122.469ZM128.596 253.121C128.259 253.121 127.958 253.063 127.694 252.947C127.431 252.831 127.223 252.67 127.068 252.464C126.914 252.256 126.831 252.015 126.817 251.741H127.461C127.475 251.91 127.533 252.055 127.635 252.178C127.737 252.299 127.871 252.393 128.036 252.459C128.202 252.526 128.385 252.559 128.586 252.559C128.811 252.559 129.01 252.52 129.184 252.441C129.358 252.363 129.494 252.254 129.593 252.114C129.692 251.974 129.741 251.812 129.741 251.628C129.741 251.436 129.693 251.266 129.598 251.12C129.503 250.971 129.363 250.856 129.179 250.772C128.995 250.689 128.77 250.647 128.504 250.647H128.085V250.085H128.504C128.712 250.085 128.894 250.047 129.051 249.972C129.21 249.897 129.333 249.791 129.422 249.655C129.512 249.519 129.557 249.359 129.557 249.175C129.557 248.997 129.518 248.843 129.44 248.712C129.361 248.581 129.25 248.478 129.107 248.405C128.966 248.332 128.799 248.295 128.606 248.295C128.426 248.295 128.255 248.328 128.095 248.395C127.937 248.46 127.807 248.554 127.707 248.679C127.606 248.801 127.551 248.95 127.543 249.123H126.929C126.94 248.849 127.022 248.609 127.177 248.403C127.332 248.195 127.535 248.033 127.786 247.917C128.038 247.801 128.315 247.743 128.616 247.743C128.94 247.743 129.218 247.809 129.45 247.94C129.682 248.069 129.86 248.241 129.984 248.454C130.108 248.667 130.171 248.897 130.171 249.144C130.171 249.439 130.093 249.69 129.938 249.898C129.785 250.106 129.576 250.25 129.312 250.33V250.371C129.642 250.425 129.9 250.566 130.086 250.793C130.272 251.017 130.365 251.296 130.365 251.628C130.365 251.913 130.287 252.169 130.132 252.395C129.979 252.62 129.769 252.797 129.503 252.927C129.238 253.056 128.935 253.121 128.596 253.121ZM131.574 253.05L133.915 248.418V248.377H131.216V247.815H134.57V248.408L132.238 253.05H131.574ZM137.148 253.121C136.933 253.118 136.719 253.077 136.504 252.998C136.289 252.92 136.093 252.788 135.916 252.602C135.739 252.415 135.596 252.162 135.489 251.843C135.382 251.523 135.328 251.121 135.328 250.637C135.328 250.173 135.372 249.762 135.458 249.405C135.545 249.045 135.671 248.743 135.837 248.497C136.002 248.25 136.201 248.063 136.435 247.935C136.67 247.807 136.935 247.743 137.23 247.743C137.523 247.743 137.784 247.802 138.012 247.92C138.242 248.035 138.429 248.197 138.574 248.405C138.719 248.613 138.813 248.852 138.855 249.123H138.232C138.174 248.888 138.061 248.693 137.894 248.538C137.727 248.383 137.506 248.305 137.23 248.305C136.824 248.305 136.505 248.482 136.271 248.835C136.04 249.187 135.923 249.682 135.921 250.32H135.962C136.057 250.175 136.171 250.051 136.302 249.949C136.435 249.845 136.581 249.765 136.742 249.709C136.902 249.653 137.071 249.624 137.25 249.624C137.55 249.624 137.825 249.699 138.073 249.849C138.322 249.998 138.521 250.203 138.671 250.465C138.821 250.726 138.896 251.025 138.896 251.363C138.896 251.686 138.824 251.983 138.679 252.252C138.534 252.52 138.331 252.733 138.068 252.891C137.807 253.048 137.501 253.125 137.148 253.121ZM137.148 252.559C137.363 252.559 137.555 252.505 137.726 252.398C137.898 252.29 138.033 252.146 138.132 251.966C138.233 251.785 138.283 251.584 138.283 251.363C138.283 251.146 138.234 250.949 138.137 250.772C138.042 250.593 137.91 250.451 137.741 250.345C137.574 250.24 137.383 250.187 137.168 250.187C137.007 250.187 136.856 250.219 136.716 250.284C136.576 250.347 136.454 250.434 136.348 250.545C136.244 250.655 136.162 250.782 136.103 250.925C136.043 251.067 136.013 251.216 136.013 251.373C136.013 251.581 136.062 251.775 136.159 251.956C136.258 252.136 136.392 252.282 136.563 252.393C136.735 252.503 136.93 252.559 137.148 252.559ZM143.766 247.815V253.05H143.132V248.479H143.102L141.824 249.328V248.684L143.132 247.815H143.766ZM147.296 253.05V252.589L149.024 250.698C149.227 250.476 149.394 250.284 149.525 250.12C149.656 249.955 149.754 249.8 149.817 249.655C149.881 249.509 149.914 249.355 149.914 249.195C149.914 249.011 149.869 248.852 149.781 248.717C149.694 248.582 149.575 248.478 149.423 248.405C149.271 248.332 149.101 248.295 148.912 248.295C148.711 248.295 148.535 248.337 148.385 248.421C148.237 248.502 148.122 248.617 148.04 248.766C147.96 248.914 147.92 249.088 147.92 249.287H147.317C147.317 248.98 147.387 248.711 147.529 248.479C147.67 248.248 147.863 248.067 148.107 247.937C148.352 247.808 148.627 247.743 148.932 247.743C149.239 247.743 149.511 247.808 149.748 247.937C149.984 248.067 150.17 248.242 150.305 248.461C150.439 248.681 150.507 248.926 150.507 249.195C150.507 249.388 150.472 249.576 150.402 249.76C150.334 249.942 150.214 250.146 150.044 250.371C149.875 250.594 149.641 250.867 149.341 251.189L148.165 252.446V252.487H150.599V253.05H147.296ZM153.321 247.743C153.536 247.745 153.75 247.786 153.965 247.866C154.18 247.946 154.376 248.079 154.553 248.265C154.73 248.449 154.872 248.7 154.98 249.019C155.087 249.337 155.141 249.737 155.141 250.217C155.141 250.683 155.097 251.096 155.008 251.457C154.921 251.817 154.795 252.12 154.63 252.367C154.466 252.614 154.267 252.802 154.032 252.929C153.798 253.057 153.534 253.121 153.239 253.121C152.946 253.121 152.684 253.063 152.454 252.947C152.226 252.83 152.039 252.667 151.892 252.459C151.747 252.25 151.654 252.007 151.613 251.731H152.237C152.293 251.971 152.405 252.169 152.572 252.326C152.741 252.481 152.963 252.559 153.239 252.559C153.643 252.559 153.962 252.382 154.195 252.03C154.43 251.677 154.548 251.179 154.548 250.534H154.507C154.412 250.678 154.298 250.801 154.167 250.905C154.036 251.009 153.89 251.089 153.73 251.145C153.57 251.202 153.399 251.23 153.219 251.23C152.919 251.23 152.644 251.156 152.393 251.007C152.144 250.857 151.945 250.652 151.795 250.391C151.647 250.129 151.573 249.829 151.573 249.492C151.573 249.171 151.644 248.878 151.787 248.612C151.932 248.345 152.135 248.132 152.396 247.973C152.658 247.815 152.966 247.738 153.321 247.743ZM153.321 248.305C153.106 248.305 152.913 248.359 152.741 248.467C152.57 248.572 152.435 248.715 152.334 248.896C152.235 249.075 152.186 249.273 152.186 249.492C152.186 249.71 152.234 249.908 152.329 250.087C152.426 250.264 152.558 250.406 152.725 250.511C152.894 250.615 153.086 250.667 153.3 250.667C153.462 250.667 153.613 250.636 153.753 250.573C153.893 250.508 154.014 250.42 154.118 250.309C154.224 250.197 154.307 250.07 154.366 249.929C154.426 249.785 154.456 249.636 154.456 249.481C154.456 249.277 154.406 249.085 154.308 248.906C154.21 248.727 154.076 248.582 153.904 248.472C153.733 248.361 153.539 248.305 153.321 248.305ZM157.986 247.815V253.05H157.352V248.479H157.322L156.044 249.328V248.684L157.352 247.815H157.986Z" fill="#535352"/>
<path d="M67.066 261.65L65.8698 257.723H66.5037L67.3523 260.729H67.3932L68.2316 257.723H68.8757L69.7039 260.719H69.7448L70.5934 257.723H71.2273L70.0311 261.65H69.438L68.5792 258.633H68.5179L67.659 261.65H67.066ZM72.0248 261.65V257.723H72.628V261.65H72.0248ZM72.3315 257.069C72.2139 257.069 72.1126 257.029 72.0274 256.949C71.9439 256.869 71.9021 256.773 71.9021 256.66C71.9021 256.548 71.9439 256.451 72.0274 256.371C72.1126 256.291 72.2139 256.251 72.3315 256.251C72.4491 256.251 72.5496 256.291 72.6331 256.371C72.7183 256.451 72.7609 256.548 72.7609 256.66C72.7609 256.773 72.7183 256.869 72.6331 256.949C72.5496 257.029 72.4491 257.069 72.3315 257.069ZM74.3361 256.415V261.65H73.7329V256.415H74.3361ZM76.0442 256.415V261.65H75.441V256.415H76.0442ZM77.1491 261.65V257.723H77.7523V261.65H77.1491ZM77.4558 257.069C77.3382 257.069 77.2368 257.029 77.1516 256.949C77.0681 256.869 77.0264 256.773 77.0264 256.66C77.0264 256.548 77.0681 256.451 77.1516 256.371C77.2368 256.291 77.3382 256.251 77.4558 256.251C77.5734 256.251 77.6739 256.291 77.7574 256.371C77.8426 256.451 77.8852 256.548 77.8852 256.66C77.8852 256.773 77.8426 256.869 77.7574 256.949C77.6739 257.029 77.5734 257.069 77.4558 257.069ZM80.0125 261.742C79.7637 261.742 79.5379 261.695 79.3352 261.601C79.1324 261.506 78.9713 261.368 78.8521 261.189C78.7328 261.009 78.6731 260.791 78.6731 260.535C78.6731 260.31 78.7174 260.128 78.8061 259.988C78.8947 259.847 79.0131 259.736 79.1613 259.656C79.3096 259.576 79.4732 259.516 79.6521 259.477C79.8327 259.436 80.0142 259.404 80.1966 259.38C80.4351 259.349 80.6285 259.326 80.7768 259.311C80.9267 259.294 81.0358 259.266 81.104 259.226C81.1738 259.187 81.2088 259.119 81.2088 259.022V259.001C81.2088 258.749 81.1397 258.553 81.0017 258.414C80.8654 258.274 80.6584 258.204 80.3806 258.204C80.0926 258.204 79.8668 258.267 79.7032 258.393C79.5396 258.519 79.4246 258.654 79.3582 258.797L78.7856 258.592C78.8878 258.354 79.0242 258.168 79.1946 258.035C79.3667 257.901 79.5541 257.807 79.7569 257.754C79.9614 257.7 80.1625 257.672 80.3601 257.672C80.4862 257.672 80.6311 257.688 80.7947 257.718C80.96 257.747 81.1193 257.808 81.2727 257.9C81.4277 257.992 81.5564 258.131 81.6586 258.316C81.7609 258.502 81.812 258.751 81.812 259.063V261.65H81.2088V261.118H81.1781C81.1372 261.203 81.069 261.294 80.9736 261.391C80.8782 261.489 80.7512 261.571 80.5928 261.639C80.4343 261.707 80.2409 261.742 80.0125 261.742ZM80.1045 261.2C80.3431 261.2 80.5442 261.153 80.7078 261.059C80.8731 260.965 80.9975 260.844 81.081 260.696C81.1662 260.548 81.2088 260.392 81.2088 260.228V259.676C81.1832 259.707 81.127 259.735 81.0401 259.761C80.9549 259.784 80.856 259.806 80.7436 259.825C80.6328 259.842 80.5246 259.857 80.4189 259.871C80.315 259.882 80.2306 259.893 80.1659 259.901C80.0091 259.922 79.8626 259.955 79.7262 260.001C79.5916 260.045 79.4826 260.112 79.3991 260.203C79.3173 260.291 79.2764 260.412 79.2764 260.566C79.2764 260.775 79.3539 260.934 79.509 261.041C79.6657 261.147 79.8643 261.2 80.1045 261.2ZM82.913 261.65V257.723H83.4958V258.337H83.5469C83.6287 258.127 83.7608 257.965 83.9431 257.849C84.1255 257.731 84.3444 257.672 84.6 257.672C84.859 257.672 85.0746 257.731 85.2467 257.849C85.4205 257.965 85.556 258.127 85.6531 258.337H85.694C85.7946 258.134 85.9454 257.973 86.1465 257.854C86.3475 257.733 86.5887 257.672 86.8698 257.672C87.2209 257.672 87.508 257.782 87.7312 258.002C87.9545 258.22 88.0661 258.56 88.0661 259.022V261.65H87.4628V259.022C87.4628 258.732 87.3836 258.525 87.2251 258.401C87.0666 258.276 86.88 258.214 86.6653 258.214C86.3893 258.214 86.1754 258.298 86.0238 258.465C85.8721 258.63 85.7963 258.84 85.7963 259.093V261.65H85.1828V258.961C85.1828 258.737 85.1104 258.558 84.9656 258.421C84.8207 258.283 84.6341 258.214 84.4058 258.214C84.249 258.214 84.1024 258.256 83.9661 258.339C83.8315 258.423 83.7224 258.539 83.6389 258.687C83.5572 258.834 83.5163 259.003 83.5163 259.196V261.65H82.913ZM91.95 258.603L91.4081 258.756C91.374 258.666 91.3238 258.578 91.2573 258.493C91.1926 258.406 91.104 258.334 90.9915 258.278C90.879 258.222 90.735 258.194 90.5595 258.194C90.3192 258.194 90.119 258.249 89.9588 258.36C89.8004 258.469 89.7211 258.608 89.7211 258.777C89.7211 258.926 89.7757 259.045 89.8847 259.132C89.9938 259.219 90.1642 259.291 90.3959 259.349L90.9787 259.492C91.3297 259.577 91.5913 259.708 91.7634 259.883C91.9355 260.057 92.0216 260.281 92.0216 260.556C92.0216 260.78 91.9568 260.982 91.8273 261.159C91.6995 261.336 91.5206 261.476 91.2906 261.578C91.0605 261.68 90.793 261.731 90.4879 261.731C90.0875 261.731 89.7561 261.644 89.4936 261.471C89.2312 261.297 89.0651 261.043 88.9952 260.709L89.5678 260.566C89.6223 260.777 89.7254 260.936 89.877 261.041C90.0304 261.147 90.2306 261.2 90.4777 261.2C90.7589 261.2 90.9821 261.14 91.1474 261.021C91.3144 260.9 91.3979 260.755 91.3979 260.586C91.3979 260.45 91.3502 260.336 91.2548 260.244C91.1593 260.15 91.0128 260.08 90.8151 260.034L90.1608 259.881C89.8012 259.796 89.5371 259.663 89.3684 259.485C89.2014 259.304 89.1179 259.078 89.1179 258.807C89.1179 258.586 89.1801 258.39 89.3045 258.219C89.4306 258.049 89.6018 257.915 89.8183 257.818C90.0364 257.721 90.2835 257.672 90.5595 257.672C90.948 257.672 91.2531 257.757 91.4746 257.928C91.6978 258.098 91.8563 258.323 91.95 258.603ZM95.6391 261.65V262.212H92.3673V261.65H95.6391ZM98.9652 258.603L98.4233 258.756C98.3892 258.666 98.3389 258.578 98.2725 258.493C98.2077 258.406 98.1191 258.334 98.0066 258.278C97.8942 258.222 97.7502 258.194 97.5747 258.194C97.3344 258.194 97.1342 258.249 96.974 258.36C96.8155 258.469 96.7363 258.608 96.7363 258.777C96.7363 258.926 96.7908 259.045 96.8999 259.132C97.0089 259.219 97.1793 259.291 97.4111 259.349L97.9939 259.492C98.3449 259.577 98.6065 259.708 98.7786 259.883C98.9507 260.057 99.0367 260.281 99.0367 260.556C99.0367 260.78 98.972 260.982 98.8425 261.159C98.7147 261.336 98.5357 261.476 98.3057 261.578C98.0756 261.68 97.8081 261.731 97.5031 261.731C97.1026 261.731 96.7712 261.644 96.5088 261.471C96.2463 261.297 96.0802 261.043 96.0103 260.709L96.5829 260.566C96.6374 260.777 96.7405 260.936 96.8922 261.041C97.0455 261.147 97.2458 261.2 97.4929 261.2C97.774 261.2 97.9973 261.14 98.1626 261.021C98.3295 260.9 98.413 260.755 98.413 260.586C98.413 260.45 98.3653 260.336 98.2699 260.244C98.1745 260.15 98.0279 260.08 97.8303 260.034L97.1759 259.881C96.8164 259.796 96.5522 259.663 96.3835 259.485C96.2165 259.304 96.133 259.078 96.133 258.807C96.133 258.586 96.1952 258.39 96.3196 258.219C96.4457 258.049 96.617 257.915 96.8334 257.818C97.0515 257.721 97.2986 257.672 97.5747 257.672C97.9632 257.672 98.2682 257.757 98.4897 257.928C98.713 258.098 98.8714 258.323 98.9652 258.603ZM102.961 263.03C102.44 263.03 101.979 262.958 101.578 262.815C101.178 262.674 100.841 262.465 100.568 262.189C100.296 261.913 100.09 261.575 99.9499 261.174C99.8102 260.774 99.7403 260.315 99.7403 259.799C99.7403 259.3 99.811 258.853 99.9524 258.46C100.096 258.066 100.303 257.732 100.574 257.458C100.846 257.182 101.177 256.971 101.565 256.826C101.956 256.681 102.397 256.609 102.889 256.609C103.368 256.609 103.787 256.687 104.147 256.844C104.508 256.999 104.81 257.21 105.052 257.475C105.295 257.74 105.478 258.037 105.599 258.368C105.721 258.698 105.783 259.039 105.783 259.39C105.783 259.637 105.771 259.888 105.747 260.141C105.723 260.395 105.673 260.629 105.596 260.842C105.52 261.053 105.401 261.224 105.241 261.353C105.082 261.483 104.868 261.547 104.597 261.547C104.478 261.547 104.346 261.529 104.203 261.491C104.06 261.454 103.933 261.391 103.822 261.304C103.712 261.218 103.646 261.101 103.626 260.954H103.595C103.554 261.053 103.491 261.147 103.406 261.235C103.322 261.324 103.212 261.395 103.076 261.448C102.941 261.5 102.777 261.523 102.583 261.517C102.361 261.508 102.166 261.459 101.997 261.368C101.829 261.276 101.687 261.152 101.573 260.995C101.461 260.837 101.375 260.654 101.317 260.446C101.261 260.236 101.233 260.01 101.233 259.768C101.233 259.538 101.267 259.328 101.335 259.137C101.403 258.946 101.498 258.779 101.619 258.636C101.742 258.493 101.885 258.379 102.048 258.293C102.214 258.207 102.392 258.153 102.583 258.132C102.753 258.115 102.908 258.123 103.048 258.155C103.188 258.186 103.303 258.233 103.393 258.296C103.483 258.357 103.54 258.425 103.564 258.5H103.595V258.214H104.137V260.525C104.137 260.668 104.177 260.794 104.257 260.903C104.337 261.012 104.454 261.067 104.607 261.067C104.781 261.067 104.914 261.007 105.006 260.888C105.1 260.769 105.163 260.585 105.198 260.336C105.233 260.087 105.251 259.768 105.251 259.38C105.251 259.151 105.22 258.926 105.157 258.705C105.095 258.482 105.002 258.273 104.875 258.079C104.751 257.884 104.593 257.713 104.403 257.565C104.212 257.417 103.988 257.301 103.73 257.217C103.475 257.132 103.184 257.09 102.859 257.09C102.458 257.09 102.1 257.152 101.783 257.276C101.467 257.399 101.199 257.579 100.977 257.815C100.758 258.051 100.59 258.337 100.474 258.674C100.36 259.01 100.303 259.392 100.303 259.819C100.303 260.254 100.36 260.64 100.474 260.977C100.59 261.315 100.76 261.599 100.985 261.831C101.212 262.063 101.492 262.238 101.826 262.358C102.16 262.479 102.545 262.539 102.981 262.539C103.169 262.539 103.354 262.521 103.536 262.485C103.718 262.45 103.879 262.41 104.019 262.368C104.159 262.325 104.259 262.294 104.321 262.273L104.464 262.744C104.358 262.788 104.22 262.832 104.05 262.876C103.881 262.921 103.7 262.957 103.508 262.986C103.317 263.015 103.135 263.03 102.961 263.03ZM102.664 260.995C102.893 260.995 103.078 260.949 103.219 260.857C103.361 260.765 103.464 260.626 103.528 260.441C103.593 260.255 103.626 260.02 103.626 259.738C103.626 259.451 103.59 259.228 103.518 259.068C103.447 258.908 103.341 258.795 103.201 258.731C103.061 258.666 102.889 258.633 102.685 258.633C102.491 258.633 102.324 258.684 102.186 258.787C102.05 258.887 101.945 259.022 101.872 259.191C101.8 259.358 101.765 259.54 101.765 259.738C101.765 259.956 101.794 260.161 101.852 260.354C101.91 260.544 102.004 260.7 102.135 260.819C102.267 260.936 102.443 260.995 102.664 260.995ZM108.281 261.731C107.913 261.731 107.596 261.644 107.33 261.471C107.064 261.297 106.86 261.057 106.716 260.752C106.573 260.447 106.502 260.099 106.502 259.707C106.502 259.308 106.575 258.956 106.722 258.651C106.87 258.345 107.076 258.105 107.34 257.933C107.606 257.759 107.916 257.672 108.271 257.672C108.547 257.672 108.795 257.723 109.017 257.826C109.238 257.928 109.42 258.071 109.561 258.255C109.703 258.439 109.791 258.654 109.825 258.899H109.221C109.175 258.72 109.073 258.562 108.915 258.424C108.758 258.284 108.547 258.214 108.281 258.214C108.046 258.214 107.839 258.276 107.662 258.398C107.487 258.519 107.35 258.69 107.251 258.912C107.154 259.132 107.105 259.39 107.105 259.686C107.105 259.99 107.153 260.254 107.248 260.479C107.345 260.704 107.482 260.878 107.657 261.003C107.834 261.127 108.042 261.189 108.281 261.189C108.438 261.189 108.58 261.162 108.708 261.108C108.835 261.053 108.944 260.975 109.032 260.872C109.121 260.77 109.184 260.648 109.221 260.504H109.825C109.791 260.736 109.706 260.945 109.572 261.131C109.439 261.315 109.262 261.461 109.042 261.57C108.824 261.678 108.57 261.731 108.281 261.731ZM112.301 261.731C111.947 261.731 111.636 261.647 111.368 261.478C111.103 261.31 110.895 261.074 110.745 260.77C110.597 260.467 110.522 260.112 110.522 259.707C110.522 259.298 110.597 258.941 110.745 258.636C110.895 258.331 111.103 258.094 111.368 257.925C111.636 257.757 111.947 257.672 112.301 257.672C112.656 257.672 112.966 257.757 113.232 257.925C113.499 258.094 113.707 258.331 113.856 258.636C114.006 258.941 114.08 259.298 114.08 259.707C114.08 260.112 114.006 260.467 113.856 260.77C113.707 261.074 113.499 261.31 113.232 261.478C112.966 261.647 112.656 261.731 112.301 261.731ZM112.301 261.189C112.571 261.189 112.792 261.12 112.966 260.982C113.14 260.844 113.269 260.663 113.352 260.438C113.436 260.213 113.477 259.969 113.477 259.707C113.477 259.444 113.436 259.2 113.352 258.973C113.269 258.747 113.14 258.564 112.966 258.424C112.792 258.284 112.571 258.214 112.301 258.214C112.032 258.214 111.811 258.284 111.637 258.424C111.463 258.564 111.334 258.747 111.251 258.973C111.167 259.2 111.126 259.444 111.126 259.707C111.126 259.969 111.167 260.213 111.251 260.438C111.334 260.663 111.463 260.844 111.637 260.982C111.811 261.12 112.032 261.189 112.301 261.189ZM115.001 261.65V257.723H115.584V258.337H115.635C115.717 258.127 115.849 257.965 116.031 257.849C116.214 257.731 116.433 257.672 116.688 257.672C116.947 257.672 117.163 257.731 117.335 257.849C117.509 257.965 117.644 258.127 117.741 258.337H117.782C117.883 258.134 118.034 257.973 118.235 257.854C118.436 257.733 118.677 257.672 118.958 257.672C119.309 257.672 119.596 257.782 119.82 258.002C120.043 258.22 120.154 258.56 120.154 259.022V261.65H119.551V259.022C119.551 258.732 119.472 258.525 119.313 258.401C119.155 258.276 118.968 258.214 118.754 258.214C118.478 258.214 118.264 258.298 118.112 258.465C117.96 258.63 117.885 258.84 117.885 259.093V261.65H117.271V258.961C117.271 258.737 117.199 258.558 117.054 258.421C116.909 258.283 116.722 258.214 116.494 258.214C116.337 258.214 116.191 258.256 116.054 258.339C115.92 258.423 115.811 258.539 115.727 258.687C115.645 258.834 115.605 259.003 115.605 259.196V261.65H115.001ZM121.257 263.122V257.723H121.84V258.347H121.912C121.956 258.279 122.017 258.192 122.096 258.086C122.176 257.979 122.29 257.884 122.438 257.8C122.588 257.715 122.791 257.672 123.047 257.672C123.377 257.672 123.669 257.755 123.921 257.92C124.173 258.086 124.37 258.32 124.511 258.623C124.653 258.926 124.723 259.284 124.723 259.697C124.723 260.112 124.653 260.473 124.511 260.778C124.37 261.081 124.174 261.316 123.923 261.483C123.673 261.649 123.384 261.731 123.057 261.731C122.805 261.731 122.603 261.69 122.451 261.606C122.299 261.521 122.183 261.425 122.101 261.317C122.019 261.208 121.956 261.118 121.912 261.046H121.861V263.122H121.257ZM121.85 259.686C121.85 259.983 121.894 260.245 121.981 260.471C122.068 260.696 122.195 260.872 122.362 261C122.529 261.126 122.733 261.189 122.975 261.189C123.227 261.189 123.438 261.123 123.606 260.99C123.777 260.855 123.905 260.675 123.99 260.448C124.077 260.22 124.12 259.966 124.12 259.686C124.12 259.41 124.078 259.162 123.992 258.94C123.909 258.717 123.782 258.541 123.611 258.411C123.443 258.28 123.231 258.214 122.975 258.214C122.73 258.214 122.523 258.276 122.356 258.401C122.189 258.523 122.063 258.696 121.978 258.917C121.893 259.137 121.85 259.393 121.85 259.686ZM126.799 261.742C126.55 261.742 126.324 261.695 126.122 261.601C125.919 261.506 125.758 261.368 125.638 261.189C125.519 261.009 125.459 260.791 125.459 260.535C125.459 260.31 125.504 260.128 125.592 259.988C125.681 259.847 125.799 259.736 125.948 259.656C126.096 259.576 126.26 259.516 126.438 259.477C126.619 259.436 126.801 259.404 126.983 259.38C127.221 259.349 127.415 259.326 127.563 259.311C127.713 259.294 127.822 259.266 127.89 259.226C127.96 259.187 127.995 259.119 127.995 259.022V259.001C127.995 258.749 127.926 258.553 127.788 258.414C127.652 258.274 127.445 258.204 127.167 258.204C126.879 258.204 126.653 258.267 126.49 258.393C126.326 258.519 126.211 258.654 126.145 258.797L125.572 258.592C125.674 258.354 125.811 258.168 125.981 258.035C126.153 257.901 126.34 257.807 126.543 257.754C126.748 257.7 126.949 257.672 127.146 257.672C127.273 257.672 127.417 257.688 127.581 257.718C127.746 257.747 127.906 257.808 128.059 257.9C128.214 257.992 128.343 258.131 128.445 258.316C128.547 258.502 128.598 258.751 128.598 259.063V261.65H127.995V261.118H127.964C127.924 261.203 127.855 261.294 127.76 261.391C127.665 261.489 127.538 261.571 127.379 261.639C127.221 261.707 127.027 261.742 126.799 261.742ZM126.891 261.2C127.129 261.2 127.331 261.153 127.494 261.059C127.659 260.965 127.784 260.844 127.867 260.696C127.953 260.548 127.995 260.392 127.995 260.228V259.676C127.97 259.707 127.913 259.735 127.826 259.761C127.741 259.784 127.642 259.806 127.53 259.825C127.419 259.842 127.311 259.857 127.205 259.871C127.101 259.882 127.017 259.893 126.952 259.901C126.795 259.922 126.649 259.955 126.513 260.001C126.378 260.045 126.269 260.112 126.185 260.203C126.104 260.291 126.063 260.412 126.063 260.566C126.063 260.775 126.14 260.934 126.295 261.041C126.452 261.147 126.651 261.2 126.891 261.2ZM130.303 259.288V261.65H129.699V257.723H130.282V258.337H130.333C130.425 258.137 130.565 257.977 130.752 257.856C130.94 257.734 131.182 257.672 131.478 257.672C131.744 257.672 131.977 257.727 132.176 257.836C132.376 257.943 132.531 258.107 132.641 258.327C132.752 258.545 132.808 258.821 132.808 259.155V261.65H132.204V259.196C132.204 258.887 132.124 258.647 131.964 258.475C131.804 258.301 131.584 258.214 131.305 258.214C131.112 258.214 130.94 258.256 130.788 258.339C130.638 258.423 130.52 258.545 130.433 258.705C130.346 258.865 130.303 259.059 130.303 259.288ZM134.158 263.122C134.056 263.122 133.964 263.113 133.884 263.096C133.804 263.081 133.749 263.066 133.718 263.05L133.872 262.519C134.018 262.556 134.148 262.57 134.26 262.559C134.373 262.549 134.472 262.499 134.559 262.409C134.648 262.32 134.729 262.176 134.802 261.977L134.914 261.67L133.463 257.723H134.117L135.201 260.852H135.242L136.325 257.723H136.98L135.313 262.222C135.238 262.425 135.145 262.593 135.035 262.726C134.924 262.86 134.795 262.96 134.649 263.025C134.504 263.089 134.34 263.122 134.158 263.122ZM137.97 261.69C137.843 261.69 137.735 261.645 137.645 261.555C137.555 261.465 137.509 261.356 137.509 261.23C137.509 261.104 137.555 260.996 137.645 260.906C137.735 260.815 137.843 260.77 137.97 260.77C138.096 260.77 138.204 260.815 138.294 260.906C138.384 260.996 138.43 261.104 138.43 261.23C138.43 261.314 138.408 261.391 138.366 261.46C138.325 261.53 138.269 261.586 138.2 261.629C138.131 261.67 138.055 261.69 137.97 261.69ZM141.107 261.731C140.739 261.731 140.422 261.644 140.156 261.471C139.89 261.297 139.686 261.057 139.543 260.752C139.4 260.447 139.328 260.099 139.328 259.707C139.328 259.308 139.401 258.956 139.548 258.651C139.696 258.345 139.902 258.105 140.166 257.933C140.432 257.759 140.742 257.672 141.097 257.672C141.373 257.672 141.622 257.723 141.843 257.826C142.065 257.928 142.246 258.071 142.388 258.255C142.529 258.439 142.617 258.654 142.651 258.899H142.048C142.002 258.72 141.9 258.562 141.741 258.424C141.584 258.284 141.373 258.214 141.107 258.214C140.872 258.214 140.666 258.276 140.489 258.398C140.313 258.519 140.176 258.69 140.077 258.912C139.98 259.132 139.931 259.39 139.931 259.686C139.931 259.99 139.979 260.254 140.074 260.479C140.172 260.704 140.308 260.878 140.483 261.003C140.661 261.127 140.869 261.189 141.107 261.189C141.264 261.189 141.406 261.162 141.534 261.108C141.662 261.053 141.77 260.975 141.859 260.872C141.947 260.77 142.01 260.648 142.048 260.504H142.651C142.617 260.736 142.533 260.945 142.398 261.131C142.265 261.315 142.089 261.461 141.869 261.57C141.651 261.678 141.397 261.731 141.107 261.731ZM145.128 261.731C144.773 261.731 144.462 261.647 144.195 261.478C143.929 261.31 143.721 261.074 143.571 260.77C143.423 260.467 143.349 260.112 143.349 259.707C143.349 259.298 143.423 258.941 143.571 258.636C143.721 258.331 143.929 258.094 144.195 257.925C144.462 257.757 144.773 257.672 145.128 257.672C145.482 257.672 145.792 257.757 146.058 257.925C146.326 258.094 146.534 258.331 146.682 258.636C146.832 258.941 146.907 259.298 146.907 259.707C146.907 260.112 146.832 260.467 146.682 260.77C146.534 261.074 146.326 261.31 146.058 261.478C145.792 261.647 145.482 261.731 145.128 261.731ZM145.128 261.189C145.397 261.189 145.619 261.12 145.792 260.982C145.966 260.844 146.095 260.663 146.178 260.438C146.262 260.213 146.304 259.969 146.304 259.707C146.304 259.444 146.262 259.2 146.178 258.973C146.095 258.747 145.966 258.564 145.792 258.424C145.619 258.284 145.397 258.214 145.128 258.214C144.859 258.214 144.637 258.284 144.463 258.424C144.289 258.564 144.161 258.747 144.077 258.973C143.994 259.2 143.952 259.444 143.952 259.707C143.952 259.969 143.994 260.213 144.077 260.438C144.161 260.663 144.289 260.844 144.463 260.982C144.637 261.12 144.859 261.189 145.128 261.189ZM147.828 261.65V257.723H148.41V258.337H148.462C148.543 258.127 148.675 257.965 148.858 257.849C149.04 257.731 149.259 257.672 149.515 257.672C149.774 257.672 149.989 257.731 150.161 257.849C150.335 257.965 150.471 258.127 150.568 258.337H150.609C150.709 258.134 150.86 257.973 151.061 257.854C151.262 257.733 151.503 257.672 151.784 257.672C152.136 257.672 152.423 257.782 152.646 258.002C152.869 258.22 152.981 258.56 152.981 259.022V261.65H152.377V259.022C152.377 258.732 152.298 258.525 152.14 258.401C151.981 258.276 151.795 258.214 151.58 258.214C151.304 258.214 151.09 258.298 150.938 258.465C150.787 258.63 150.711 258.84 150.711 259.093V261.65H150.097V258.961C150.097 258.737 150.025 258.558 149.88 258.421C149.735 258.283 149.549 258.214 149.32 258.214C149.164 258.214 149.017 258.256 148.881 258.339C148.746 258.423 148.637 258.539 148.554 258.687C148.472 258.834 148.431 259.003 148.431 259.196V261.65H147.828Z" fill="#535352"/>
<path d="M76.9102 269.429V266.055H77.4828V269.429H76.9102ZM75.5095 268.029V267.456H78.8835V268.029H75.5095ZM81.8185 270.421C81.4334 270.421 81.1054 270.316 80.8344 270.107C80.5635 269.895 80.3564 269.59 80.2133 269.189C80.0702 268.787 79.9986 268.301 79.9986 267.732C79.9986 267.166 80.0702 266.683 80.2133 266.283C80.3581 265.881 80.566 265.574 80.837 265.363C81.1096 265.15 81.4368 265.043 81.8185 265.043C82.2002 265.043 82.5265 265.15 82.7975 265.363C83.0701 265.574 83.278 265.881 83.4212 266.283C83.566 266.683 83.6384 267.166 83.6384 267.732C83.6384 268.301 83.5669 268.787 83.4237 269.189C83.2806 269.59 83.0735 269.895 82.8026 270.107C82.5317 270.316 82.2036 270.421 81.8185 270.421ZM81.8185 269.859C82.2002 269.859 82.4967 269.675 82.708 269.307C82.9193 268.939 83.025 268.414 83.025 267.732C83.025 267.279 82.9764 266.893 82.8793 266.574C82.7839 266.256 82.6458 266.013 82.4652 265.846C82.2863 265.679 82.0707 265.595 81.8185 265.595C81.4402 265.595 81.1446 265.782 80.9316 266.155C80.7186 266.527 80.612 267.052 80.612 267.732C80.612 268.185 80.6598 268.571 80.7552 268.888C80.8506 269.204 80.9878 269.446 81.1667 269.611C81.3473 269.776 81.5646 269.859 81.8185 269.859ZM86.4501 265.115V270.35H85.8162V265.779H85.7855L84.5075 266.628V265.984L85.8162 265.115H86.4501ZM91.6568 270.421C91.3058 270.421 90.9957 270.359 90.7264 270.235C90.4589 270.108 90.2501 269.936 90.1002 269.716C89.9502 269.494 89.8761 269.242 89.8778 268.959C89.8761 268.738 89.9196 268.533 90.0082 268.346C90.0968 268.156 90.2178 267.999 90.3711 267.873C90.5262 267.745 90.6992 267.664 90.89 267.63V267.599C90.6395 267.535 90.4401 267.394 90.2919 267.178C90.1436 266.959 90.0704 266.711 90.0721 266.434C90.0704 266.168 90.1377 265.93 90.274 265.721C90.4103 265.511 90.5978 265.346 90.8363 265.225C91.0766 265.104 91.3501 265.043 91.6568 265.043C91.9602 265.043 92.2311 265.104 92.4697 265.225C92.7082 265.346 92.8957 265.511 93.032 265.721C93.17 265.93 93.2399 266.168 93.2416 266.434C93.2399 266.711 93.1641 266.959 93.0141 267.178C92.8659 267.394 92.669 267.535 92.4237 267.599V267.63C92.6128 267.664 92.7832 267.745 92.9349 267.873C93.0865 267.999 93.2075 268.156 93.2978 268.346C93.3882 268.533 93.4342 268.738 93.4359 268.959C93.4342 269.242 93.3575 269.494 93.2058 269.716C93.0559 269.936 92.8471 270.108 92.5796 270.235C92.3137 270.359 92.0062 270.421 91.6568 270.421ZM91.6568 269.859C91.8937 269.859 92.0982 269.821 92.2703 269.744C92.4424 269.667 92.5753 269.559 92.669 269.419C92.7628 269.279 92.8105 269.116 92.8122 268.928C92.8105 268.731 92.7594 268.556 92.6588 268.404C92.5583 268.253 92.4211 268.133 92.2473 268.047C92.0752 267.96 91.8784 267.916 91.6568 267.916C91.4336 267.916 91.2342 267.96 91.0587 268.047C90.8849 268.133 90.7477 268.253 90.6472 268.404C90.5484 268.556 90.4998 268.731 90.5015 268.928C90.4998 269.116 90.5449 269.279 90.637 269.419C90.7307 269.559 90.8645 269.667 91.0383 269.744C91.2121 269.821 91.4183 269.859 91.6568 269.859ZM91.6568 267.374C91.8443 267.374 92.0104 267.337 92.1553 267.262C92.3018 267.187 92.4168 267.082 92.5003 266.947C92.5838 266.813 92.6264 266.655 92.6281 266.475C92.6264 266.297 92.5847 266.143 92.5029 266.012C92.4211 265.879 92.3078 265.777 92.1629 265.705C92.0181 265.632 91.8494 265.595 91.6568 265.595C91.4609 265.595 91.2896 265.632 91.1431 265.705C90.9965 265.777 90.8832 265.879 90.8031 266.012C90.723 266.143 90.6838 266.297 90.6855 266.475C90.6838 266.655 90.7239 266.813 90.8057 266.947C90.8892 267.082 91.0042 267.187 91.1507 267.262C91.2973 267.337 91.466 267.374 91.6568 267.374ZM96.082 265.043C96.2967 265.045 96.5115 265.086 96.7262 265.166C96.9409 265.246 97.1368 265.379 97.3141 265.565C97.4913 265.749 97.6336 266 97.7409 266.319C97.8483 266.637 97.902 267.037 97.902 267.517C97.902 267.983 97.8577 268.396 97.769 268.757C97.6821 269.117 97.556 269.42 97.3907 269.667C97.2272 269.914 97.0278 270.102 96.7926 270.229C96.5592 270.357 96.295 270.421 96.0002 270.421C95.7071 270.421 95.4456 270.363 95.2155 270.247C94.9872 270.13 94.7997 269.967 94.6532 269.759C94.5084 269.55 94.4155 269.307 94.3746 269.031H94.9983C95.0545 269.271 95.1661 269.469 95.3331 269.626C95.5018 269.781 95.7242 269.859 96.0002 269.859C96.4041 269.859 96.7228 269.682 96.9562 269.33C97.1914 268.977 97.309 268.479 97.309 267.834H97.2681C97.1726 267.978 97.0593 268.101 96.9281 268.205C96.7969 268.309 96.6512 268.389 96.491 268.445C96.3308 268.502 96.1604 268.53 95.9798 268.53C95.6799 268.53 95.4047 268.456 95.1542 268.307C94.9054 268.157 94.706 267.952 94.5561 267.691C94.4078 267.429 94.3337 267.129 94.3337 266.792C94.3337 266.471 94.4053 266.178 94.5484 265.912C94.6932 265.645 94.896 265.432 95.1567 265.273C95.4192 265.115 95.7276 265.038 96.082 265.043ZM96.082 265.606C95.8673 265.606 95.6739 265.659 95.5018 265.767C95.3314 265.872 95.1959 266.015 95.0954 266.196C94.9966 266.375 94.9471 266.573 94.9471 266.792C94.9471 267.01 94.9949 267.208 95.0903 267.387C95.1874 267.564 95.3195 267.706 95.4865 267.811C95.6552 267.915 95.8469 267.967 96.0616 267.967C96.2235 267.967 96.3743 267.936 96.514 267.873C96.6537 267.808 96.7756 267.72 96.8795 267.609C96.9852 267.497 97.0678 267.37 97.1275 267.229C97.1871 267.086 97.2169 266.936 97.2169 266.781C97.2169 266.577 97.1675 266.385 97.0687 266.206C96.9716 266.027 96.8369 265.882 96.6648 265.772C96.4944 265.661 96.3002 265.606 96.082 265.606ZM98.9071 270.35V269.89L100.635 267.998C100.838 267.776 101.005 267.584 101.136 267.42C101.267 267.255 101.364 267.1 101.427 266.955C101.492 266.809 101.525 266.655 101.525 266.495C101.525 266.311 101.48 266.152 101.392 266.017C101.305 265.882 101.185 265.778 101.034 265.705C100.882 265.632 100.712 265.595 100.523 265.595C100.321 265.595 100.146 265.637 99.996 265.721C99.8478 265.802 99.7327 265.917 99.651 266.066C99.5709 266.214 99.5308 266.388 99.5308 266.587H98.9276C98.9276 266.28 98.9983 266.011 99.1397 265.779C99.2812 265.548 99.4737 265.367 99.7174 265.237C99.9628 265.108 100.238 265.043 100.543 265.043C100.85 265.043 101.122 265.108 101.358 265.237C101.595 265.367 101.781 265.542 101.916 265.761C102.05 265.981 102.118 266.226 102.118 266.495C102.118 266.688 102.083 266.876 102.013 267.06C101.945 267.242 101.825 267.446 101.655 267.671C101.486 267.894 101.252 268.167 100.952 268.489L99.7762 269.746V269.787H102.21V270.35H98.9071ZM105.106 265.115V270.35H104.472V265.779H104.441L103.163 266.628V265.984L104.472 265.115H105.106ZM110.302 265.043C110.517 265.045 110.732 265.086 110.946 265.166C111.161 265.246 111.357 265.379 111.534 265.565C111.711 265.749 111.854 266 111.961 266.319C112.068 266.637 112.122 267.037 112.122 267.517C112.122 267.983 112.078 268.396 111.989 268.757C111.902 269.117 111.776 269.42 111.611 269.667C111.447 269.914 111.248 270.102 111.013 270.229C110.779 270.357 110.515 270.421 110.22 270.421C109.927 270.421 109.666 270.363 109.436 270.247C109.207 270.13 109.02 269.967 108.873 269.759C108.728 269.55 108.636 269.307 108.595 269.031H109.218C109.275 269.271 109.386 269.469 109.553 269.626C109.722 269.781 109.944 269.859 110.22 269.859C110.624 269.859 110.943 269.682 111.176 269.33C111.411 268.977 111.529 268.479 111.529 267.834H111.488C111.393 267.978 111.279 268.101 111.148 268.205C111.017 268.309 110.871 268.389 110.711 268.445C110.551 268.502 110.38 268.53 110.2 268.53C109.9 268.53 109.625 268.456 109.374 268.307C109.125 268.157 108.926 267.952 108.776 267.691C108.628 267.429 108.554 267.129 108.554 266.792C108.554 266.471 108.625 266.178 108.768 265.912C108.913 265.645 109.116 265.432 109.377 265.273C109.639 265.115 109.948 265.038 110.302 265.043ZM110.302 265.606C110.087 265.606 109.894 265.659 109.722 265.767C109.551 265.872 109.416 266.015 109.315 266.196C109.217 266.375 109.167 266.573 109.167 266.792C109.167 267.01 109.215 267.208 109.31 267.387C109.407 267.564 109.54 267.706 109.707 267.811C109.875 267.915 110.067 267.967 110.282 267.967C110.444 267.967 110.594 267.936 110.734 267.873C110.874 267.808 110.996 267.72 111.1 267.609C111.205 267.497 111.288 267.37 111.348 267.229C111.407 267.086 111.437 266.936 111.437 266.781C111.437 266.577 111.388 266.385 111.289 266.206C111.192 266.027 111.057 265.882 110.885 265.772C110.714 265.661 110.52 265.606 110.302 265.606ZM114.835 270.421C114.45 270.421 114.122 270.316 113.851 270.107C113.58 269.895 113.373 269.59 113.229 269.189C113.086 268.787 113.015 268.301 113.015 267.732C113.015 267.166 113.086 266.683 113.229 266.283C113.374 265.881 113.582 265.574 113.853 265.363C114.126 265.15 114.453 265.043 114.835 265.043C115.216 265.043 115.543 265.15 115.814 265.363C116.086 265.574 116.294 265.881 116.437 266.283C116.582 266.683 116.655 267.166 116.655 267.732C116.655 268.301 116.583 268.787 116.44 269.189C116.297 269.59 116.09 269.895 115.819 270.107C115.548 270.316 115.22 270.421 114.835 270.421ZM114.835 269.859C115.216 269.859 115.513 269.675 115.724 269.307C115.935 268.939 116.041 268.414 116.041 267.732C116.041 267.279 115.993 266.893 115.895 266.574C115.8 266.256 115.662 266.013 115.481 265.846C115.302 265.679 115.087 265.595 114.835 265.595C114.456 265.595 114.161 265.782 113.948 266.155C113.735 266.527 113.628 267.052 113.628 267.732C113.628 268.185 113.676 268.571 113.771 268.888C113.867 269.204 114.004 269.446 114.183 269.611C114.363 269.776 114.581 269.859 114.835 269.859ZM119.466 265.115V270.35H118.832V265.779H118.802L117.524 266.628V265.984L118.832 265.115H119.466ZM120.972 270.35V269.89L122.7 267.998C122.902 267.776 123.069 267.584 123.201 267.42C123.332 267.255 123.429 267.1 123.492 266.955C123.557 266.809 123.589 266.655 123.589 266.495C123.589 266.311 123.545 266.152 123.456 266.017C123.369 265.882 123.25 265.778 123.098 265.705C122.947 265.632 122.776 265.595 122.587 265.595C122.386 265.595 122.211 265.637 122.061 265.721C121.912 265.802 121.797 265.917 121.716 266.066C121.636 266.214 121.595 266.388 121.595 266.587H120.992C120.992 266.28 121.063 266.011 121.204 265.779C121.346 265.548 121.538 265.367 121.782 265.237C122.027 265.108 122.303 265.043 122.608 265.043C122.914 265.043 123.186 265.108 123.423 265.237C123.66 265.367 123.846 265.542 123.98 265.761C124.115 265.981 124.182 266.226 124.182 266.495C124.182 266.688 124.147 266.876 124.077 267.06C124.009 267.242 123.89 267.446 123.72 267.671C123.551 267.894 123.317 268.167 123.017 268.489L121.841 269.746V269.787H124.274V270.35H120.972ZM129.031 270.421C128.68 270.421 128.37 270.359 128.101 270.235C127.833 270.108 127.624 269.936 127.474 269.716C127.324 269.494 127.25 269.242 127.252 268.959C127.25 268.738 127.294 268.533 127.382 268.346C127.471 268.156 127.592 267.999 127.745 267.873C127.9 267.745 128.073 267.664 128.264 267.63V267.599C128.014 267.535 127.814 267.394 127.666 267.178C127.518 266.959 127.445 266.711 127.446 266.434C127.445 266.168 127.512 265.93 127.648 265.721C127.785 265.511 127.972 265.346 128.211 265.225C128.451 265.104 128.724 265.043 129.031 265.043C129.334 265.043 129.605 265.104 129.844 265.225C130.082 265.346 130.27 265.511 130.406 265.721C130.544 265.93 130.614 266.168 130.616 266.434C130.614 266.711 130.538 266.959 130.388 267.178C130.24 267.394 130.043 267.535 129.798 267.599V267.63C129.987 267.664 130.157 267.745 130.309 267.873C130.461 267.999 130.582 268.156 130.672 268.346C130.762 268.533 130.808 268.738 130.81 268.959C130.808 269.242 130.732 269.494 130.58 269.716C130.43 269.936 130.221 270.108 129.954 270.235C129.688 270.359 129.38 270.421 129.031 270.421ZM129.031 269.859C129.268 269.859 129.472 269.821 129.645 269.744C129.817 269.667 129.95 269.559 130.043 269.419C130.137 269.279 130.185 269.116 130.186 268.928C130.185 268.731 130.134 268.556 130.033 268.404C129.933 268.253 129.795 268.133 129.622 268.047C129.449 267.96 129.253 267.916 129.031 267.916C128.808 267.916 128.608 267.96 128.433 268.047C128.259 268.133 128.122 268.253 128.021 268.404C127.923 268.556 127.874 268.731 127.876 268.928C127.874 269.116 127.919 269.279 128.011 269.419C128.105 269.559 128.239 269.667 128.413 269.744C128.586 269.821 128.793 269.859 129.031 269.859ZM129.031 267.374C129.219 267.374 129.385 267.337 129.53 267.262C129.676 267.187 129.791 267.082 129.875 266.947C129.958 266.813 130.001 266.655 130.002 266.475C130.001 266.297 129.959 266.143 129.877 266.012C129.795 265.879 129.682 265.777 129.537 265.705C129.392 265.632 129.224 265.595 129.031 265.595C128.835 265.595 128.664 265.632 128.517 265.705C128.371 265.777 128.257 265.879 128.177 266.012C128.097 266.143 128.058 266.297 128.06 266.475C128.058 266.655 128.098 266.813 128.18 266.947C128.263 267.082 128.378 267.187 128.525 267.262C128.672 267.337 128.84 267.374 129.031 267.374ZM133.467 270.421C133.115 270.421 132.805 270.359 132.536 270.235C132.269 270.108 132.06 269.936 131.91 269.716C131.76 269.494 131.686 269.242 131.687 268.959C131.686 268.738 131.729 268.533 131.818 268.346C131.906 268.156 132.027 267.999 132.181 267.873C132.336 267.745 132.509 267.664 132.7 267.63V267.599C132.449 267.535 132.25 267.394 132.102 267.178C131.953 266.959 131.88 266.711 131.882 266.434C131.88 266.168 131.947 265.93 132.084 265.721C132.22 265.511 132.407 265.346 132.646 265.225C132.886 265.104 133.16 265.043 133.467 265.043C133.77 265.043 134.041 265.104 134.279 265.225C134.518 265.346 134.705 265.511 134.842 265.721C134.98 265.93 135.05 266.168 135.051 266.434C135.05 266.711 134.974 266.959 134.824 267.178C134.676 267.394 134.479 267.535 134.233 267.599V267.63C134.422 267.664 134.593 267.745 134.745 267.873C134.896 267.999 135.017 268.156 135.108 268.346C135.198 268.533 135.244 268.738 135.246 268.959C135.244 269.242 135.167 269.494 135.015 269.716C134.866 269.936 134.657 270.108 134.389 270.235C134.123 270.359 133.816 270.421 133.467 270.421ZM133.467 269.859C133.703 269.859 133.908 269.821 134.08 269.744C134.252 269.667 134.385 269.559 134.479 269.419C134.572 269.279 134.62 269.116 134.622 268.928C134.62 268.731 134.569 268.556 134.468 268.404C134.368 268.253 134.231 268.133 134.057 268.047C133.885 267.96 133.688 267.916 133.467 267.916C133.243 267.916 133.044 267.96 132.868 268.047C132.695 268.133 132.557 268.253 132.457 268.404C132.358 268.556 132.309 268.731 132.311 268.928C132.309 269.116 132.355 269.279 132.447 269.419C132.54 269.559 132.674 269.667 132.848 269.744C133.022 269.821 133.228 269.859 133.467 269.859ZM133.467 267.374C133.654 267.374 133.82 267.337 133.965 267.262C134.111 267.187 134.227 267.082 134.31 266.947C134.394 266.813 134.436 266.655 134.438 266.475C134.436 266.297 134.394 266.143 134.313 266.012C134.231 265.879 134.117 265.777 133.973 265.705C133.828 265.632 133.659 265.595 133.467 265.595C133.271 265.595 133.099 265.632 132.953 265.705C132.806 265.777 132.693 265.879 132.613 266.012C132.533 266.143 132.494 266.297 132.495 266.475C132.494 266.655 132.534 266.813 132.615 266.947C132.699 267.082 132.814 267.187 132.96 267.262C133.107 267.337 133.276 267.374 133.467 267.374ZM137.902 270.421C137.551 270.421 137.241 270.359 136.972 270.235C136.704 270.108 136.495 269.936 136.345 269.716C136.195 269.494 136.121 269.242 136.123 268.959C136.121 268.738 136.165 268.533 136.253 268.346C136.342 268.156 136.463 267.999 136.616 267.873C136.771 267.745 136.944 267.664 137.135 267.63V267.599C136.885 267.535 136.685 267.394 136.537 267.178C136.389 266.959 136.315 266.711 136.317 266.434C136.315 266.168 136.383 265.93 136.519 265.721C136.655 265.511 136.843 265.346 137.081 265.225C137.322 265.104 137.595 265.043 137.902 265.043C138.205 265.043 138.476 265.104 138.715 265.225C138.953 265.346 139.141 265.511 139.277 265.721C139.415 265.93 139.485 266.168 139.487 266.434C139.485 266.711 139.409 266.959 139.259 267.178C139.111 267.394 138.914 267.535 138.669 267.599V267.63C138.858 267.664 139.028 267.745 139.18 267.873C139.332 267.999 139.453 268.156 139.543 268.346C139.633 268.533 139.679 268.738 139.681 268.959C139.679 269.242 139.603 269.494 139.451 269.716C139.301 269.936 139.092 270.108 138.825 270.235C138.559 270.359 138.251 270.421 137.902 270.421ZM137.902 269.859C138.139 269.859 138.343 269.821 138.515 269.744C138.688 269.667 138.82 269.559 138.914 269.419C139.008 269.279 139.056 269.116 139.057 268.928C139.056 268.731 139.004 268.556 138.904 268.404C138.803 268.253 138.666 268.133 138.492 268.047C138.32 267.96 138.123 267.916 137.902 267.916C137.679 267.916 137.479 267.96 137.304 268.047C137.13 268.133 136.993 268.253 136.892 268.404C136.793 268.556 136.745 268.731 136.747 268.928C136.745 269.116 136.79 269.279 136.882 269.419C136.976 269.559 137.11 269.667 137.283 269.744C137.457 269.821 137.663 269.859 137.902 269.859ZM137.902 267.374C138.089 267.374 138.256 267.337 138.4 267.262C138.547 267.187 138.662 267.082 138.745 266.947C138.829 266.813 138.872 266.655 138.873 266.475C138.872 266.297 138.83 266.143 138.748 266.012C138.666 265.879 138.553 265.777 138.408 265.705C138.263 265.632 138.094 265.595 137.902 265.595C137.706 265.595 137.535 265.632 137.388 265.705C137.242 265.777 137.128 265.879 137.048 266.012C136.968 266.143 136.929 266.297 136.931 266.475C136.929 266.655 136.969 266.813 137.051 266.947C137.134 267.082 137.249 267.187 137.396 267.262C137.542 267.337 137.711 267.374 137.902 267.374ZM142.337 270.421C141.986 270.421 141.676 270.359 141.407 270.235C141.139 270.108 140.931 269.936 140.781 269.716C140.631 269.494 140.557 269.242 140.558 268.959C140.557 268.738 140.6 268.533 140.689 268.346C140.777 268.156 140.898 267.999 141.052 267.873C141.207 267.745 141.38 267.664 141.571 267.63V267.599C141.32 267.535 141.121 267.394 140.972 267.178C140.824 266.959 140.751 266.711 140.753 266.434C140.751 266.168 140.818 265.93 140.955 265.721C141.091 265.511 141.278 265.346 141.517 265.225C141.757 265.104 142.031 265.043 142.337 265.043C142.641 265.043 142.912 265.104 143.15 265.225C143.389 265.346 143.576 265.511 143.713 265.721C143.851 265.93 143.92 266.168 143.922 266.434C143.92 266.711 143.845 266.959 143.695 267.178C143.546 267.394 143.35 267.535 143.104 267.599V267.63C143.293 267.664 143.464 267.745 143.615 267.873C143.767 267.999 143.888 268.156 143.978 268.346C144.069 268.533 144.115 268.738 144.116 268.959C144.115 269.242 144.038 269.494 143.886 269.716C143.736 269.936 143.528 270.108 143.26 270.235C142.994 270.359 142.687 270.421 142.337 270.421ZM142.337 269.859C142.574 269.859 142.779 269.821 142.951 269.744C143.123 269.667 143.256 269.559 143.35 269.419C143.443 269.279 143.491 269.116 143.493 268.928C143.491 268.731 143.44 268.556 143.339 268.404C143.239 268.253 143.102 268.133 142.928 268.047C142.756 267.96 142.559 267.916 142.337 267.916C142.114 267.916 141.915 267.96 141.739 268.047C141.565 268.133 141.428 268.253 141.328 268.404C141.229 268.556 141.18 268.731 141.182 268.928C141.18 269.116 141.225 269.279 141.317 269.419C141.411 269.559 141.545 269.667 141.719 269.744C141.893 269.821 142.099 269.859 142.337 269.859ZM142.337 267.374C142.525 267.374 142.691 267.337 142.836 267.262C142.982 267.187 143.097 267.082 143.181 266.947C143.264 266.813 143.307 266.655 143.309 266.475C143.307 266.297 143.265 266.143 143.183 266.012C143.102 265.879 142.988 265.777 142.843 265.705C142.699 265.632 142.53 265.595 142.337 265.595C142.141 265.595 141.97 265.632 141.824 265.705C141.677 265.777 141.564 265.879 141.484 266.012C141.404 266.143 141.364 266.297 141.366 266.475C141.364 266.655 141.404 266.813 141.486 266.947C141.57 267.082 141.685 267.187 141.831 267.262C141.978 267.337 142.147 267.374 142.337 267.374Z" fill="#535352"/>
<path d="M105.1 235.4H82.4V237.2H105.1V235.4Z" fill="url(#paint0_linear_3_7705)"/>
<path d="M129.8 235.4H107.1V237.2H129.8V235.4Z" fill="#0B7077"/>
<path d="M63.0001 145.1L106.1 70.3999L149.3 145.1H63.0001Z" fill="#0B7077"/>
<path d="M170.2 63.2L106.1 174.2L42.1001 63.2H170.2Z" fill="#FD661F"/>
<mask id="mask0_3_7705" style="mask-type:luminance" maskUnits="userSpaceOnUse" x="42" y="16" width="129" height="159">
<path d="M143.3 63.1999V16.3999H69.0001V63.1999H42.1001L106.1 174.2L170.2 63.1999H143.3Z" fill="white"/>
</mask>
<g mask="url(#mask0_3_7705)">
<path d="M137.7 119.1C126.5 110.9 117.9 106.6 117.9 101.9C117.9 97.2999 117.9 91.2999 117.9 91.2999H106.6H105.8H94.5001C94.5001 91.2999 94.5001 97.2999 94.5001 101.9C94.5001 106.5 85.9001 110.9 74.7001 119.1C63.5001 127.3 63.2001 147.1 63.2001 147.1H105.9H106.8H149.5C149.3 147.1 149 127.2 137.7 119.1Z" fill="url(#paint1_linear_3_7705)"/>
<path d="M137.7 119.1C126.5 110.9 117.9 106.6 117.9 101.9C117.9 97.2999 117.9 91.2999 117.9 91.2999H106.6H106.2V147.1H106.6H149.3C149.3 147.1 149 127.2 137.7 119.1Z" fill="url(#paint2_linear_3_7705)"/>
<path d="M125 110.1C120.6 107 117.9 104.5 117.9 101.9C117.9 97.2999 117.9 91.2999 117.9 91.2999H106.6H105.8H94.5001C94.5001 91.2999 94.5001 92.1999 94.5001 93.4999C95.3001 95.2999 99.0001 103.2 106.3 106.9C112.7 110.2 119.8 111.4 125 110.1Z" fill="url(#paint3_linear_3_7705)"/>
<path d="M126 73.6999C126 73.6999 128 69.4999 131.2 70.0999C134.4 70.6999 133.3 76.0999 131.8 78.9999C129.5 83.5999 123.9 84.9999 123.8 83.2999C123.7 81.5999 126 73.6999 126 73.6999Z" fill="url(#paint4_linear_3_7705)"/>
<path d="M86.3001 73.6999C86.3001 73.6999 84.3001 69.4999 81.1001 70.0999C77.9001 70.6999 79.0001 76.0999 80.5001 78.9999C82.8001 83.5999 88.4001 84.9999 88.5001 83.2999C88.6001 81.5999 86.3001 73.6999 86.3001 73.6999Z" fill="url(#paint5_linear_3_7705)"/>
<path d="M82.5001 70.2C83.8001 76.3 86.2001 80.7999 88.0001 83.9999C88.3001 83.8999 88.5001 83.6999 88.5001 83.3999C88.6001 81.6999 86.3001 73.7999 86.3001 73.7999C86.3001 73.7999 84.9001 70.7 82.5001 70.2Z" fill="url(#paint6_linear_3_7705)"/>
<path d="M126 73.7C126 73.7 123.7 81.6 123.8 83.3C123.8 83.6 124 83.8 124.3 83.9C126.1 80.7 128.4 76.2 129.8 70.1C127.4 70.7 126 73.7 126 73.7Z" fill="url(#paint7_linear_3_7705)"/>
<path d="M128 57.9C126.4 41.4 112.9 38.2 106.1 38.2C99.3002 38.2 85.8002 41.4 84.2002 57.9C82.6002 74.4 88.1002 84 90.6002 89.2C93.1002 94.3 101.4 97.6 106 97.6C110.6 97.6 118.9 94.3 121.4 89.2C124.1 84 129.6 74.3 128 57.9Z" fill="url(#paint8_linear_3_7705)"/>
<path d="M121.5 89.1C124 84 129.5 74.3 127.9 57.8C126.3 41.3 112.8 38.1 106 38.1V97.6C110.8 97.6 119 94.3 121.5 89.1Z" fill="url(#paint9_linear_3_7705)"/>
<path d="M128 57.9C126.4 41.4 112.9 38.2 106.1 38.2C99.3001 38.2 85.8001 41.4 84.2001 57.9C83.6001 63.7 84.0001 68.7 84.7001 72.9C84.8001 72.7 88.0001 65.8 88.6001 61.6C88.6001 61.6 89.3001 63.3 90.4001 63.9C91.4001 61.5 92.0001 57.4 91.8001 54.1C91.8001 54.1 94.4001 58.5999 102.1 61.9999C102.1 61.9999 101.8 58.5 101.1 56.4C107.8 61.5 115.1 63.5 119.8 63.4C119.8 63.4 119.5 61.2 118.5 59.4C119.1 60.2 120.5 61.5 123.3 62.2999C123.3 62.2999 125.5 67.8 127.4 72.7C128.2 68.4 128.5 63.6 128 57.9Z" fill="url(#paint10_linear_3_7705)"/>
<path d="M112.2 86.7H100C99.7001 86.7 99.6001 87.2 99.7001 87.7C100.8 89.8 103.3 91.2999 106.1 91.2999C108.9 91.2999 111.3 89.8999 112.5 87.7999C112.7 87.3999 112.6 86.7 112.2 86.7Z" fill="url(#paint11_linear_3_7705)"/>
<path d="M111.3 89.3999C110.4 88.0999 108.4 87.2 106.2 87.2C103.9 87.2 102 88.0999 101 89.3999C102.3 90.5999 104.1 91.2999 106.2 91.2999C108.2 91.2999 110 90.4999 111.3 89.3999Z" fill="url(#paint12_linear_3_7705)"/>
<path d="M112.2 86.7H100C100.4 87.3 100.9 87.8999 101.7 88.0999C103.1 88.3999 106.1 88.3999 106.1 88.3999C106.1 88.3999 109.1 88.3999 110.5 88.0999C111.3 87.8999 111.9 87.3 112.2 86.7Z" fill="url(#paint13_linear_3_7705)"/>
<path d="M114.1 68.7999C113.1 69.4999 112.1 70.6999 112.2 72.2999C112.2 72.2999 113.2 73.9999 117 73.6999C120.3 73.3999 120.7 70.4999 120.7 70.4999C119.8 68.8999 118 67.2999 114.1 68.7999Z" fill="white"/>
<path d="M98.2002 68.7999C99.2002 69.4999 100.2 70.6999 100.1 72.2999C100.1 72.2999 99.1002 73.9999 95.3002 73.6999C92.0002 73.3999 91.6002 70.4999 91.6002 70.4999C92.5002 68.8999 94.4002 67.2999 98.2002 68.7999Z" fill="white"/>
<path d="M119.2 70.6999C119.2 72.1999 118 73.4999 116.4 73.4999C114.9 73.4999 113.6 72.2999 113.6 70.6999C113.6 69.1999 114.8 67.8999 116.4 67.8999C118 67.8999 119.2 69.0999 119.2 70.6999Z" fill="url(#paint14_linear_3_7705)"/>
<path d="M120 69.9999C120 70.4999 119.5 70.7999 118.9 70.7999C118.3 70.7999 117.8 70.3999 117.8 69.9999C117.8 69.4999 118.3 69.1999 118.9 69.1999C119.5 69.0999 120 69.4999 120 69.9999Z" fill="white"/>
<path d="M111.8 71.7999C111.8 71.7999 113.6 68.6999 116.8 68.6999C119.7 68.6999 120.8 70.9999 120.8 70.9999L121.8 69.9999C121.8 69.9999 119.7 67.4999 116.6 67.6999C112.2 68.0999 111.8 71.7999 111.8 71.7999Z" fill="#262B3B"/>
<path d="M110.2 65.1999C110.2 65.1999 112.1 66.0999 115.9 64.9999C119.7 63.8999 119.9 63.2999 122.9 63.0999C122.9 63.0999 117.9 61.5999 114.3 62.7999C111.3 63.9999 110.2 65.1999 110.2 65.1999Z" fill="#262B3B"/>
<path d="M93.0001 70.6999C93.0001 72.1999 94.2001 73.4999 95.8001 73.4999C97.3001 73.4999 98.6001 72.2999 98.6001 70.6999C98.6001 69.1999 97.4001 67.8999 95.8001 67.8999C94.3001 67.8999 93.0001 69.0999 93.0001 70.6999Z" fill="url(#paint15_linear_3_7705)"/>
<path d="M99.4002 69.9999C99.4002 70.4999 98.9002 70.7999 98.3002 70.7999C97.7002 70.7999 97.2002 70.3999 97.2002 69.9999C97.2002 69.4999 97.7002 69.1999 98.3002 69.1999C98.9002 69.0999 99.4002 69.4999 99.4002 69.9999Z" fill="white"/>
<path d="M100.5 71.7999C100.5 71.7999 98.7001 68.6999 95.5001 68.6999C92.6001 68.6999 91.5001 70.9999 91.5001 70.9999L90.5001 69.9999C90.5001 69.9999 92.6001 67.4999 95.7001 67.6999C100 68.0999 100.5 71.7999 100.5 71.7999Z" fill="#262B3B"/>
<path d="M102 65.1999C102 65.1999 100.1 66.0999 96.3002 64.9999C92.5002 63.8999 92.3002 63.2999 89.3002 63.0999C89.3002 63.0999 94.3002 61.5999 97.9002 62.7999C101 63.9999 102 65.1999 102 65.1999Z" fill="#262B3B"/>
<path d="M106.1 82.4999C106.1 82.4999 104.6 82.3999 103.6 81.8999C103.6 81.8999 104.1 83.7999 106.1 83.9999C108.1 83.7999 108.6 81.8999 108.6 81.8999C107.7 82.2999 106.1 82.4999 106.1 82.4999Z" fill="#DD8076"/>
<path d="M137.7 119.1C131.7 114.7 126.5 111.5 122.9 108.7L106.1 115.3L89.3001 108.7C85.7001 111.5 80.5001 114.8 74.5001 119.1C63.3001 127.3 63.0001 147.1 63.0001 147.1V176.1H149.3V147.1C149.3 147.1 149 127.2 137.7 119.1Z" fill="#B88C78"/>
<path d="M100.1 176.1H112L129.4 113.3C126.9 111.6 124.7 110.1 122.9 108.7L106.1 115.3L89.3002 108.7C87.5002 110.1 85.3002 111.6 82.8002 113.3L100.1 176.1Z" fill="#947060"/>
<path d="M122.9 108.6L106.1 169.6L89.3002 108.6L106.1 114.6L122.9 108.6Z" fill="url(#paint16_linear_3_7705)"/>
<path d="M103.2 124.7L98.3002 119.2L106.1 114.6L114 119.2L109.1 124.7H103.2Z" fill="url(#paint17_linear_3_7705)"/>
<path d="M112.4 147.1L109.1 124.7H103.1L99.9001 147.1L106.1 169.6L112.4 147.1Z" fill="url(#paint18_linear_3_7705)"/>
<path d="M94.4002 101L106.1 113.4V115.8L93.9002 125.1L89.3002 108.6L94.4002 101Z" fill="url(#paint19_linear_3_7705)"/>
<path d="M117.9 101L106.1 113.4V115.8L118.4 125.1L122.9 108.6L117.9 101Z" fill="url(#paint20_linear_3_7705)"/>
<path d="M91.2001 51.8C91.2001 51.8 93.8001 56.3 101.5 59.7C101.5 59.7 101.2 56.2 100.5 54.1C107.2 59.2 114.5 61.2 119.2 61.1C119.2 61.1 118.8 58.3 117.4 56.4C117.4 56.4 120 58.9 124.1 60.1C124.1 60.1 126.3 64.9 127.5 72.5C127.5 72.5 132.2 67.7 132.2 56.2C132.2 44.7 127.3 31.9 107.5 29.9L111.4 26.9C102.2 26.2 91.1001 27.4 85.5001 39.3C85.5001 39.3 82.9001 37 78.4001 38.6C80.2001 42.1 83.2001 41.6 84.4001 41.2C78.2001 45.3 78.2001 50.8 78.8001 57.8C79.4001 64.7 81.7001 70.4 85.1001 72.5C85.1001 72.5 87.4001 63.5 88.0001 59.4C88.0001 59.4 88.7001 61.1 89.8001 61.7C90.8001 59.3 91.4001 55.1 91.2001 51.8Z" fill="url(#paint21_linear_3_7705)"/>
</g>
<path d="M158 117.8L211.9 24.5V10.8C211.9 9.6 211.7 8.5 211.3 7.5L147.6 117.8H158Z" fill="#0B7077"/>
<path d="M211.9 34.3L163.7 117.8H169.4L211.9 44.3V34.3Z" fill="#FD661F"/>
<path d="M54.2 117.8L0.300049 24.5V10.8C0.300049 9.6 0.500049 8.5 0.900049 7.5L64.6001 117.8H54.2Z" fill="#0B7077"/>
<path d="M0.300049 34.3L48.5 117.8H42.7L0.300049 44.3V34.3Z" fill="#FD661F"/>
<path d="M44.0001 345.3L64.6001 309.6H54.2001L33.6001 345.3H44.0001Z" fill="#0B7077"/>
<path d="M158 309.6H147.6L168.2 345.3H178.6L158 309.6Z" fill="#FD661F"/>
<path d="M27.9001 345.3L48.5001 309.6H42.7001L22.1001 345.3H27.9001Z" fill="#FD661F"/>
<path d="M169.4 309.6H163.7L184.3 345.3H190L169.4 309.6Z" fill="#FD661F"/>
<defs>
<linearGradient id="paint0_linear_3_7705" x1="85.5196" y1="227.988" x2="99.0574" y2="241.526" gradientUnits="userSpaceOnUse">
<stop stop-color="#FF8AAF"/>
<stop offset="1" stop-color="#D4316A"/>
</linearGradient>
<linearGradient id="paint1_linear_3_7705" x1="106.138" y1="134.364" x2="106.138" y2="97.2999" gradientUnits="userSpaceOnUse">
<stop stop-color="#FBDAD0"/>
<stop offset="1" stop-color="#FBB8A6"/>
</linearGradient>
<linearGradient id="paint2_linear_3_7705" x1="86.4884" y1="100.849" x2="138.926" y2="138.515" gradientUnits="userSpaceOnUse">
<stop stop-color="#FBB8A6"/>
<stop offset="1" stop-color="#FBDAD0" stop-opacity="0.1"/>
</linearGradient>
<linearGradient id="paint3_linear_3_7705" x1="92.1371" y1="84.9698" x2="119.947" y2="104.946" gradientUnits="userSpaceOnUse">
<stop stop-color="#FBB8A6"/>
<stop offset="1" stop-color="#FBDAD0" stop-opacity="0.1"/>
</linearGradient>
<linearGradient id="paint4_linear_3_7705" x1="128.727" y1="73.8393" x2="128.205" y2="85.0043" gradientUnits="userSpaceOnUse">
<stop stop-color="#F3B0A8"/>
<stop offset="1" stop-color="#F5CEB5"/>
</linearGradient>
<linearGradient id="paint5_linear_3_7705" x1="83.5475" y1="73.8393" x2="84.0698" y2="85.0043" gradientUnits="userSpaceOnUse">
<stop stop-color="#F3B0A8"/>
<stop offset="1" stop-color="#F5CEB5"/>
</linearGradient>
<linearGradient id="paint6_linear_3_7705" x1="85.498" y1="80.8339" x2="85.498" y2="71.6639" gradientUnits="userSpaceOnUse">
<stop stop-color="#FBB8A6"/>
<stop offset="1" stop-color="#FBDAD0" stop-opacity="0.1"/>
</linearGradient>
<linearGradient id="paint7_linear_3_7705" x1="126.776" y1="80.834" x2="126.776" y2="71.664" gradientUnits="userSpaceOnUse">
<stop stop-color="#FBB8A6"/>
<stop offset="1" stop-color="#FBDAD0" stop-opacity="0.1"/>
</linearGradient>
<linearGradient id="paint8_linear_3_7705" x1="106.138" y1="84.0236" x2="106.138" y2="44.5897" gradientUnits="userSpaceOnUse">
<stop stop-color="#FBDAD0"/>
<stop offset="1" stop-color="#FBD0C4"/>
</linearGradient>
<linearGradient id="paint9_linear_3_7705" x1="88.1164" y1="52.1341" x2="120.966" y2="75.7305" gradientUnits="userSpaceOnUse">
<stop stop-color="#FBB8A6"/>
<stop offset="1" stop-color="#FBDAD0" stop-opacity="0.1"/>
</linearGradient>
<linearGradient id="paint10_linear_3_7705" x1="84.0139" y1="55.5102" x2="128.261" y2="55.5102" gradientUnits="userSpaceOnUse">
<stop stop-color="#FBB8A6"/>
<stop offset="1" stop-color="#FBDAD0" stop-opacity="0.1"/>
</linearGradient>
<linearGradient id="paint11_linear_3_7705" x1="106.123" y1="86.3403" x2="106.123" y2="90.7919" gradientUnits="userSpaceOnUse">
<stop stop-color="#302869"/>
<stop offset="1" stop-color="#852325"/>
</linearGradient>
<linearGradient id="paint12_linear_3_7705" x1="106.137" y1="87.2867" x2="106.137" y2="91.3706" gradientUnits="userSpaceOnUse">
<stop stop-color="#851C1E"/>
<stop offset="1" stop-color="#D02D2F"/>
</linearGradient>
<linearGradient id="paint13_linear_3_7705" x1="100.031" y1="87.5594" x2="112.242" y2="87.5594" gradientUnits="userSpaceOnUse">
<stop stop-color="white"/>
<stop offset="1" stop-color="#BEDFE8"/>
</linearGradient>
<linearGradient id="paint14_linear_3_7705" x1="116.449" y1="67.8967" x2="116.449" y2="72.827" gradientUnits="userSpaceOnUse">
<stop stop-color="#252A3B"/>
<stop offset="1" stop-color="#676B78"/>
</linearGradient>
<linearGradient id="paint15_linear_3_7705" x1="95.8278" y1="67.8967" x2="95.8278" y2="72.827" gradientUnits="userSpaceOnUse">
<stop stop-color="#252A3B"/>
<stop offset="1" stop-color="#676B78"/>
</linearGradient>
<linearGradient id="paint16_linear_3_7705" x1="106.139" y1="120.234" x2="106.139" y2="167.206" gradientUnits="userSpaceOnUse">
<stop stop-color="white"/>
<stop offset="1" stop-color="#CCD6E8"/>
</linearGradient>
<linearGradient id="paint17_linear_3_7705" x1="108.121" y1="125.854" x2="104.641" y2="114.304" gradientUnits="userSpaceOnUse">
<stop stop-color="#3B3D45"/>
<stop offset="1" stop-color="#252A3B"/>
</linearGradient>
<linearGradient id="paint18_linear_3_7705" x1="114.616" y1="170.543" x2="100.187" y2="122.655" gradientUnits="userSpaceOnUse">
<stop stop-color="#3B3D45"/>
<stop offset="1" stop-color="#252A3B"/>
</linearGradient>
<linearGradient id="paint19_linear_3_7705" x1="97.7419" y1="101.216" x2="97.7419" y2="125.347" gradientUnits="userSpaceOnUse">
<stop stop-color="white"/>
<stop offset="1" stop-color="#CCD6E8"/>
</linearGradient>
<linearGradient id="paint20_linear_3_7705" x1="114.534" y1="101.216" x2="114.534" y2="125.346" gradientUnits="userSpaceOnUse">
<stop stop-color="white"/>
<stop offset="1" stop-color="#CCD6E8"/>
</linearGradient>
<linearGradient id="paint21_linear_3_7705" x1="78.4093" y1="49.6801" x2="132.248" y2="49.6801" gradientUnits="userSpaceOnUse">
<stop stop-color="#3B3D45"/>
<stop offset="1" stop-color="#252A3B"/>
</linearGradient>
</defs>
</svg>
